<svg xmlns="http://www.w3.org/2000/svg" x="0px" y="0px" width="100" height="100" viewBox="0,0,256,256">
<g fill="#2093e7" fill-rule="nonzero" stroke="none" stroke-width="1" stroke-linecap="butt" stroke-linejoin="miter" stroke-miterlimit="10" stroke-dasharray="" stroke-dashoffset="0" font-family="none" font-weight="none" font-size="none" text-anchor="none" style="mix-blend-mode: normal"><g transform="scale(8.53333,8.53333)"><path d="M17.99805,4c-2.0475,0 -4.09425,0.78175 -5.65625,2.34375l-1.98633,1.98438c-1.124,1.124 -2.45997,1.9997 -3.91797,2.5957l12.63672,12.63672c0.596,-1.458 1.4717,-2.79297 2.5957,-3.91797l1.98633,-1.98633c2.66872,-2.66872 3.04906,-6.75023 1.1582,-9.83203c0.72028,-0.32115 1.18459,-1.03559 1.18555,-1.82422c0,-1.10457 -0.89543,-2 -2,-2c-0.78863,0.00096 -1.50307,0.46527 -1.82422,1.18555c-1.27837,-0.78473 -2.72648,-1.18555 -4.17773,-1.18555zM3.99023,10.99023c-0.40692,0.00011 -0.77321,0.24676 -0.92633,0.62377c-0.15312,0.37701 -0.06255,0.80921 0.22907,1.09303l5.42383,5.42383c-1.02287,0.33743 -1.71464,1.29205 -1.7168,2.36914c0,1.38071 1.11929,2.5 2.5,2.5c1.07729,-0.00104 2.03276,-0.69206 2.37109,-1.71484l5.42188,5.42188c0.25082,0.26124 0.62327,0.36648 0.97371,0.27512c0.35044,-0.09136 0.62411,-0.36503 0.71547,-0.71547c0.09136,-0.35044 -0.01388,-0.72289 -0.27512,-0.97371l-14,-14c-0.18827,-0.19353 -0.4468,-0.30272 -0.7168,-0.30274z"></path></g></g>
</svg>